<?xml version="1.0" standalone="no"?>
<!DOCTYPE svg PUBLIC "-//W3C//DTD SVG 20010904//EN"
 "http://www.w3.org/TR/2001/REC-SVG-20010904/DTD/svg10.dtd">
<svg version="1.0" xmlns="http://www.w3.org/2000/svg"
 width="550.000000pt" height="550.000000pt" viewBox="0 0 550.000000 550.000000"
 preserveAspectRatio="xMidYMid meet">
<metadata>
Created by potrace 1.11, written by Peter Selinger 2001-2013
</metadata>
<g transform="translate(0.000000,550.000000) scale(0.100000,-0.100000)"
fill="#000000" stroke="none">
<path d="M1420 4530 c-20 -20 -20 -33 -20 -1513 0 -1251 2 -1496 14 -1512 13
-19 39 -22 168 -24 l47 -1 0 -54 c-1 -53 -2 -55 -32 -62 -83 -18 -119 -73
-122 -187 -4 -155 45 -218 174 -224 95 -4 148 6 182 34 48 41 60 74 61 172 0
75 -3 95 -23 130 -21 38 -83 81 -117 81 -13 0 -18 110 -4 111 4 0 49 1 100 2
79 2 96 5 108 21 11 15 13 69 13 258 0 131 2 242 5 246 3 5 381 9 841 9 l835
0 5 -21 c2 -12 3 -124 3 -250 -1 -274 -5 -265 115 -264 122 1 113 5 112 -54
-1 -50 -2 -54 -33 -63 -47 -16 -91 -52 -106 -88 -7 -18 -14 -68 -14 -113 -1
-153 48 -205 197 -212 75 -3 92 0 131 20 67 34 90 81 90 186 0 48 -6 96 -14
115 -17 41 -66 83 -106 92 -18 4 -30 13 -31 23 0 9 -1 32 -2 50 -1 19 2 37 7
40 5 3 47 5 93 4 66 0 87 3 105 18 l23 18 1 1489 c0 941 -3 1495 -9 1508 -6
11 -15 23 -21 27 -6 4 -122 8 -257 8 l-247 0 -33 -38 c-19 -21 -85 -106 -148
-188 -63 -82 -141 -183 -173 -224 -32 -41 -101 -131 -153 -200 -53 -69 -101
-132 -108 -140 -7 -8 -57 -73 -112 -145 -55 -71 -105 -137 -112 -145 -7 -8
-19 -24 -26 -34 -13 -18 -15 -17 -40 15 -46 58 -225 291 -596 774 -123 160
-232 298 -243 308 -18 15 -46 17 -264 17 -231 0 -245 -1 -264 -20z m435 -1211
l0 -1116 -171 0 -171 0 -1 1111 c0 611 2 1114 4 1117 2 3 79 5 171 5 l168 -1
0 -1116z m2250 1 l0 -1115 -167 -1 -168 0 0 1116 0 1117 168 -1 167 -1 0
-1115z m-1975 795 c25 -33 47 -62 50 -65 3 -3 78 -99 165 -213 88 -115 213
-277 277 -360 69 -88 114 -156 110 -163 -4 -6 -38 -52 -77 -101 l-69 -90 -121
156 c-66 86 -150 194 -186 241 -36 47 -120 156 -187 242 l-121 157 -1 163 c0
90 -1 180 0 201 l0 38 58 -73 c31 -40 77 -100 102 -133z m1527 13 c0 -106 -3
-200 -8 -209 -6 -12 -494 -651 -542 -709 -7 -8 -40 -52 -74 -97 l-63 -81 -150
0 c-82 0 -150 3 -150 6 0 4 71 99 158 212 600 779 825 1070 827 1070 1 0 2
-87 2 -192z m-1641 -453 c35 -47 466 -607 486 -631 6 -9 -61 -11 -262 -10
l-271 1 0 248 c1 427 1 450 5 446 2 -2 21 -26 42 -54z m1641 -299 l-1 -344
-268 0 -269 0 18 27 c37 56 507 661 513 661 4 0 7 -155 7 -344z m-970 -552 l0
-92 -353 0 -353 1 2 92 1 92 352 0 351 0 0 -93z m208 91 c19 -4 21 -11 20 -92
l-1 -88 -57 -1 -57 -2 0 92 0 92 38 2 c20 1 46 -1 57 -3z m305 -5 c8 -5 14
-33 17 -79 3 -65 1 -72 -21 -86 -27 -18 -128 -18 -151 -1 -22 16 -23 145 -1
161 18 14 136 18 156 5z m456 -86 l1 -90 -164 -1 -163 -1 0 93 0 93 163 -2
162 -1 1 -91z m0 -301 l2 -93 -844 0 -844 0 0 93 0 94 843 -1 842 -1 1 -92z
m-969 -299 l1 -94 -353 0 -352 0 0 94 0 93 352 1 351 0 1 -94z m228 -1 l1 -93
-58 0 -58 0 0 93 0 94 58 -1 57 -1 0 -92z m291 72 c15 -20 16 -120 2 -147 -7
-15 -22 -18 -81 -18 -44 0 -78 5 -85 12 -7 7 -12 40 -12 79 0 85 13 97 102 94
46 -2 64 -7 74 -20z m450 -72 l1 -93 -163 0 -164 0 0 94 0 94 163 -2 162 -1 1
-92z m-1801 -230 l0 -93 -171 0 -171 0 -1 95 -1 95 172 -2 172 -3 0 -92z
m2255 2 l0 -95 -170 0 -170 0 0 95 0 95 170 0 170 0 0 -95z m-2265 -214 c6 -1
10 -38 10 -91 l0 -90 -35 -1 c-40 -1 -278 -1 -298 0 -9 1 -12 22 -11 79 2 118
-14 108 166 106 87 -1 163 -2 168 -3z m2263 -89 c2 -83 1 -92 -15 -93 -21 -1
-280 0 -305 0 -16 1 -18 12 -18 89 0 49 2 91 4 93 3 2 78 4 168 4 l163 0 3
-93z m-2345 -450 c17 -15 20 -147 3 -161 -18 -15 -143 -16 -160 -1 -12 9 -16
31 -16 79 0 68 5 85 28 92 27 9 131 2 145 -9z m2262 -5 c14 -19 13 -143 -2
-158 -14 -14 -151 -15 -165 -1 -6 6 -11 43 -11 82 -2 89 6 96 98 95 50 -1 71
-5 80 -18z"/>
</g>
</svg>
